<svg xmlns="http://www.w3.org/2000/svg" xmlns:svg="http://www.w3.org/2000/svg" xmlns:xlink="http://www.w3.org/1999/xlink" id="svg2" width="500" height="300" version="1.0"><defs id="defs4"><linearGradient id="linearGradient9888"><stop style="stop-color:#fff;stop-opacity:1" id="stop9890" offset="0"/><stop style="stop-color:#fff;stop-opacity:0" id="stop9892" offset="1"/></linearGradient><linearGradient id="linearGradient10219" x1="8.76" x2="19.756" y1="13.663" y2="43.45" gradientTransform="matrix(0.968718,0,0,0.9689198,0.3616813,0.7378237)" gradientUnits="userSpaceOnUse" xlink:href="#linearGradient9888"/><linearGradient id="linearGradient8650"><stop id="stop8652" offset="0" style="stop-color:#fff;stop-opacity:1"/><stop id="stop8654" offset="1" style="stop-color:#fff;stop-opacity:0"/></linearGradient><radialGradient id="radialGradient10217" cx="19.701" cy="2.897" r="17.171" fx="19.701" fy="2.897" gradientTransform="matrix(1.253442,0,0,0.9539,-15.47908,11.27663)" gradientUnits="userSpaceOnUse" xlink:href="#linearGradient8650"/><linearGradient id="linearGradient8662"><stop id="stop8664" offset="0" style="stop-color:#000;stop-opacity:1"/><stop id="stop8666" offset="1" style="stop-color:#000;stop-opacity:0"/></linearGradient><radialGradient id="radialGradient10215" cx="24.837" cy="36.421" r="15.645" fx="24.837" fy="36.421" gradientTransform="matrix(1,0,0,0.536723,0,16.87306)" gradientUnits="userSpaceOnUse" xlink:href="#linearGradient8662"/><filter id="filter6421" width="1.283" height="1.208" x="-.142" y="-.104"><feGaussianBlur id="feGaussianBlur6423" stdDeviation="2.07"/></filter><linearGradient id="linearGradient6365"><stop id="stop6367" offset="0" style="stop-color:#fff;stop-opacity:1"/><stop id="stop6369" offset="1" style="stop-color:#fff;stop-opacity:0"/></linearGradient><linearGradient id="linearGradient10213" x1="40.25" x2="40.25" y1="31.625" y2="43.25" gradientTransform="translate(-12.020815,0)" gradientUnits="userSpaceOnUse" xlink:href="#linearGradient6365"/><linearGradient id="linearGradient9896"><stop style="stop-color:#cecece;stop-opacity:1" id="stop9898" offset="0"/><stop style="stop-color:#9e9e9e;stop-opacity:1" id="stop9900" offset="1"/></linearGradient><linearGradient id="linearGradient10211" x1="31.079" x2="33.711" y1="21.511" y2="18.064" gradientTransform="translate(-12.020815,0)" gradientUnits="userSpaceOnUse" xlink:href="#linearGradient9896"/><linearGradient id="linearGradient9880"><stop style="stop-color:#525252;stop-opacity:1" id="stop9882" offset="0"/><stop style="stop-color:#525252;stop-opacity:0" id="stop9884" offset="1"/></linearGradient><linearGradient id="linearGradient10209" x1="31.853" x2="34.007" y1="19.108" y2="24.765" gradientTransform="translate(-13.136935,0)" gradientUnits="userSpaceOnUse" xlink:href="#linearGradient9880"/><linearGradient id="linearGradient9868"><stop id="stop9870" offset="0" style="stop-color:#4e4e4e;stop-opacity:1"/><stop id="stop9872" offset="1" style="stop-color:#616161;stop-opacity:0"/></linearGradient><radialGradient id="radialGradient10207" cx="27.884" cy="7.14" r="9.723" fx="27.884" fy="7.14" gradientTransform="matrix(2.565823,0,0,1.403262,-49.804045,-9.483303)" gradientUnits="userSpaceOnUse" xlink:href="#linearGradient9868"/><linearGradient id="linearGradient9854"><stop style="stop-color:#4e4e4e;stop-opacity:1" id="stop9856" offset="0"/><stop style="stop-color:#ababab;stop-opacity:1" id="stop9858" offset="1"/></linearGradient><linearGradient id="linearGradient10205" x1="46.846" x2="18.031" y1="19.804" y2="27.759" gradientTransform="translate(-12.020815,0)" gradientUnits="userSpaceOnUse" xlink:href="#linearGradient9854"/><filter id="filter6451" width="1.134" height="1.239" x="-.067" y="-.12"><feGaussianBlur id="feGaussianBlur6453" stdDeviation=".769"/></filter><linearGradient id="linearGradient6467"><stop id="stop6469" offset="0" style="stop-color:#babdb6;stop-opacity:1"/><stop id="stop6471" offset="1" style="stop-color:#babdb6;stop-opacity:0"/></linearGradient><linearGradient id="linearGradient10203" x1="18.729" x2="18.729" y1="44" y2="29.068" gradientUnits="userSpaceOnUse" xlink:href="#linearGradient6467"/><linearGradient id="linearGradient18190"><stop style="stop-color:#d7d7d7;stop-opacity:1" id="stop18192" offset="0"/><stop style="stop-color:#7f7f7f;stop-opacity:0" id="stop18194" offset="1"/></linearGradient><marker id="EmptyTriangleInL" orient="auto" refX="0" refY="0" style="overflow:visible"><path id="path3490" d="M 5.77,0.0 L -2.88,5.0 L -2.88,-5.0 L 5.77,0.0 z" transform="scale(-0.8) translate(-6,0)" style="fill-rule:evenodd;fill:#fff;stroke:#000;stroke-width:1pt;marker-start:none"/></marker><marker id="EmptyTriangleInM" orient="auto" refX="0" refY="0" style="overflow:visible"><path id="path3493" d="M 5.77,0.0 L -2.88,5.0 L -2.88,-5.0 L 5.77,0.0 z" transform="scale(-0.4) translate(-4.5,0)" style="fill-rule:evenodd;fill:#fff;stroke:#000;stroke-width:1pt;marker-start:none"/></marker><marker id="EmptyTriangleOutM" orient="auto" refX="0" refY="0" style="overflow:visible"><path id="path3502" d="M 5.77,0.0 L -2.88,5.0 L -2.88,-5.0 L 5.77,0.0 z" transform="scale(0.4) translate(-4.5,0)" style="fill-rule:evenodd;fill:#fff;stroke:#000;stroke-width:1pt;marker-start:none"/></marker><marker id="EmptyTriangleOutL" orient="auto" refX="0" refY="0" style="overflow:visible"><path id="path3499" d="M 5.77,0.0 L -2.88,5.0 L -2.88,-5.0 L 5.77,0.0 z" transform="scale(0.8) translate(-6,0)" style="fill-rule:evenodd;fill:#fff;stroke:#000;stroke-width:1pt;marker-start:none"/></marker><marker id="Arrow1Mstart" orient="auto" refX="0" refY="0" style="overflow:visible"><path id="path3344" d="M 0.0,0.0 L 5.0,-5.0 L -12.5,0.0 L 5.0,5.0 L 0.0,0.0 z" transform="scale(0.4) translate(10,0)" style="fill-rule:evenodd;stroke:#000;stroke-width:1pt;marker-start:none"/></marker><marker id="Arrow1Mend" orient="auto" refX="0" refY="0" style="overflow:visible"><path id="path3347" d="M 0.0,0.0 L 5.0,-5.0 L -12.5,0.0 L 5.0,5.0 L 0.0,0.0 z" transform="scale(0.4) rotate(180) translate(10,0)" style="fill-rule:evenodd;stroke:#000;stroke-width:1pt;marker-start:none"/></marker><marker id="Arrow1Sstart" orient="auto" refX="0" refY="0" style="overflow:visible"><path id="path3350" d="M 0.0,0.0 L 5.0,-5.0 L -12.5,0.0 L 5.0,5.0 L 0.0,0.0 z" transform="scale(0.2) translate(6,0)" style="fill-rule:evenodd;stroke:#000;stroke-width:1pt;marker-start:none"/></marker><marker id="Arrow1Lend" orient="auto" refX="0" refY="0" style="overflow:visible"><path id="path3341" d="M 0.0,0.0 L 5.0,-5.0 L -12.5,0.0 L 5.0,5.0 L 0.0,0.0 z" transform="scale(0.8) rotate(180) translate(12.5,0)" style="fill-rule:evenodd;stroke:#000;stroke-width:1pt;marker-start:none"/></marker><marker id="Arrow1Lstart" orient="auto" refX="0" refY="0" style="overflow:visible"><path id="path3338" d="M 0.0,0.0 L 5.0,-5.0 L -12.5,0.0 L 5.0,5.0 L 0.0,0.0 z" transform="scale(0.8) translate(12.5,0)" style="fill-rule:evenodd;stroke:#000;stroke-width:1pt;marker-start:none"/></marker><linearGradient id="linearGradient18196" x1=".467" x2="501.523" y1="247.581" y2="247.581" gradientUnits="userSpaceOnUse" spreadMethod="pad" xlink:href="#linearGradient18190"/><filter id="filter18374" width="1.024" height="1.221" x="-.012" y="-.11"><feGaussianBlur id="feGaussianBlur18376" stdDeviation="2.498"/></filter><linearGradient id="linearGradient18555" x1=".467" x2="501.523" y1="247.581" y2="247.581" gradientUnits="userSpaceOnUse" spreadMethod="pad" xlink:href="#linearGradient18190"/></defs><metadata id="metadata7"/><g id="capa1"><path style="fill:none;fill-rule:evenodd;stroke:#7f7f7f;stroke-width:.32240298;stroke-linecap:butt;stroke-linejoin:miter;stroke-miterlimit:4;stroke-dasharray:none;stroke-opacity:1" id="path18140" d="M -23.792557,38.61315 L 512.32533,38.61315"/><text style="font-size:8px;font-style:normal;font-weight:400;fill:#7f7f7f;fill-opacity:1;stroke:none;stroke-width:1px;stroke-linecap:butt;stroke-linejoin:miter;stroke-opacity:1;font-family:Chandas" id="text18144" x="65.14" y="292.406" xml:space="preserve"><tspan id="tspan18146" x="65.14" y="292.406" style="font-size:8px;fill:#7f7f7f;fill-opacity:1">is free software (GPL) and is part of the Chronojump project.</tspan></text><g id="g18587"><text id="text2383" x="10" y="40" xml:space="preserve" style="font-size:36px;font-style:normal;font-weight:400;fill:#000;fill-opacity:1;stroke:none;stroke-width:1px;stroke-linecap:butt;stroke-linejoin:miter;stroke-opacity:1;font-family:Chandas"><tspan style="fill:#000;fill-opacity:1" id="tspan2385" x="10" y="40">Knee</tspan></text><g id="g18574" transform="translate(0.4723743,0)"><path style="fill:#6c007e;fill-opacity:1;fill-rule:evenodd;stroke:#f0f;stroke-width:2;stroke-linecap:butt;stroke-linejoin:miter;marker-start:none;marker-end:none;stroke-miterlimit:4;stroke-dasharray:none;stroke-opacity:1" id="path15744" d="M 114.60955,12.79472 L 96.088638,60.801635"/><path style="fill:#6c007e;fill-opacity:1;fill-rule:evenodd;stroke:#f0f;stroke-width:2;stroke-linecap:butt;stroke-linejoin:miter;marker-start:none;marker-end:none;stroke-miterlimit:4;stroke-dasharray:none;stroke-opacity:1" id="path16998" d="M 115.27595,12.78809 L 133.79686,60.795005"/><path style="fill:none;fill-rule:evenodd;stroke:#f0f;stroke-width:2;stroke-linecap:butt;stroke-linejoin:miter;stroke-miterlimit:4;stroke-dasharray:none;stroke-opacity:1" id="path17002" d="M 107.61782,28.971163 C 114.50443,38.192214 122.09137,29.087885 122.09137,29.087885"/></g><text id="text18581" x="125.944" y="39.95" xml:space="preserve" style="font-size:36px;font-style:normal;font-weight:400;fill:#000;fill-opacity:1;stroke:none;stroke-width:1px;stroke-linecap:butt;stroke-linejoin:miter;stroke-opacity:1;font-family:Chandas"><tspan style="fill:#000;fill-opacity:1" id="tspan18583" x="125.944" y="39.95">ngle</tspan></text></g><g id="g18597" transform="matrix(0.2500373,0,0,0.2500373,9.8123705,282.41738)"><text id="text18599" x="10" y="40" xml:space="preserve" style="font-size:36px;font-style:normal;font-weight:400;fill:#000;fill-opacity:1;stroke:none;stroke-width:1px;stroke-linecap:butt;stroke-linejoin:miter;stroke-opacity:1;font-family:Chandas"><tspan style="fill:#000;fill-opacity:1" id="tspan18601" x="10" y="40">Knee</tspan></text><g id="g18603" transform="translate(0.4723743,0)"><path style="fill:#6c007e;fill-opacity:1;fill-rule:evenodd;stroke:#f0f;stroke-width:2;stroke-linecap:butt;stroke-linejoin:miter;marker-start:none;marker-end:none;stroke-miterlimit:4;stroke-dasharray:none;stroke-opacity:1" id="path18605" d="M 114.60955,12.79472 L 96.088638,60.801635"/><path style="fill:#6c007e;fill-opacity:1;fill-rule:evenodd;stroke:#f0f;stroke-width:2;stroke-linecap:butt;stroke-linejoin:miter;marker-start:none;marker-end:none;stroke-miterlimit:4;stroke-dasharray:none;stroke-opacity:1" id="path18607" d="M 115.27595,12.78809 L 133.79686,60.795005"/><path style="fill:none;fill-rule:evenodd;stroke:#f0f;stroke-width:2;stroke-linecap:butt;stroke-linejoin:miter;stroke-miterlimit:4;stroke-dasharray:none;stroke-opacity:1" id="path18609" d="M 107.61782,28.971163 C 114.50443,38.192214 122.09137,29.087885 122.09137,29.087885"/></g><text id="text18611" x="125.944" y="39.95" xml:space="preserve" style="font-size:36px;font-style:normal;font-weight:400;fill:#000;fill-opacity:1;stroke:none;stroke-width:1px;stroke-linecap:butt;stroke-linejoin:miter;stroke-opacity:1;font-family:Chandas"><tspan style="fill:#000;fill-opacity:1" id="tspan18613" x="125.944" y="39.95">ngle</tspan></text></g><rect style="opacity:.78879311;fill:url(#linearGradient18555);fill-opacity:1;stroke:none;stroke-width:.30000001;stroke-linecap:round;stroke-linejoin:round;stroke-miterlimit:4;stroke-dasharray:none;stroke-dashoffset:0;stroke-opacity:1;filter:url(#filter18374)" id="rect18188" width="500.756" height="54.269" x=".617" y="220.446" transform="matrix(1,0,0,0.875,0,27.255967)"/><g id="g11702"><g id="g4019" transform="translate(-7.6293945e-6,0)"><path style="fill:#efa698;fill-opacity:1;fill-rule:evenodd;stroke:#efa698;stroke-width:1px;stroke-linecap:butt;stroke-linejoin:miter;stroke-opacity:1" id="path3325-5-6" d="m 387.05851,69.962993 c -24.67163,21.111456 -6.28781,31.949667 0.81169,44.642857 6.17596,14.02229 13.76709,30.27142 12.17532,36.52598 -1.01347,28.21182 -4.30248,38.55248 -7.3052,56.81817 l 12.98703,-0.81169 11.65732,-61.17029 c -1.42606,-29.90819 -9.2093,-43.57231 -14.09239,-58.959571 l 4.87013,-17.045455 -21.1039,-10e-7 z"/><rect style="fill:#fff;fill-opacity:1;stroke:none" id="rect3303" width="5.682" height="5.682" x="389.822" y="83.916"/><rect style="fill:#fff;fill-opacity:1;stroke:none" id="rect3305" width="5.682" height="5.682" x="407.032" y="144.356"/><rect style="fill:#fff;fill-opacity:1;stroke:none" id="rect3307" width="5.682" height="5.682" x="397.19" y="198.137"/></g><text id="text15214" x="395.466" y="237.07" xml:space="preserve" style="font-size:10px;font-style:normal;font-variant:normal;font-weight:400;font-stretch:normal;text-align:center;line-height:125%;writing-mode:lr-tb;text-anchor:middle;fill:#000;fill-opacity:1;stroke:none;font-family:Chandas;-inkscape-font-specification:Chandas"><tspan id="tspan15216" x="395.466" y="237.07">FIND points</tspan><tspan id="tspan15218" x="395.466" y="249.57">on SKIN</tspan><tspan id="tspan15220" x="395.466" y="262.07">WITH markers</tspan></text></g><g id="g4005" transform="translate(48.757637,0)"><text id="text11839" x="182.445" y="235.728" xml:space="preserve" style="font-size:10px;font-style:normal;font-weight:400;text-align:center;line-height:125%;writing-mode:lr-tb;text-anchor:middle;fill:#000;fill-opacity:1;stroke:none;font-family:Chandas"><tspan id="tspan11841" x="184.945" y="235.728">FIND points </tspan><tspan id="tspan15202" x="182.445" y="248.228">on BLACK pants</tspan><tspan id="tspan15204" x="182.445" y="260.728">WITHOUT markers</tspan></text><g id="g3996"><path style="fill:#000;fill-opacity:1;fill-rule:evenodd;stroke:#000;stroke-width:1px;stroke-linecap:butt;stroke-linejoin:miter;stroke-opacity:1" id="path3325-5" d="m 172.86932,69.962988 c -24.67163,21.111456 -6.28781,31.949662 0.81169,44.642852 6.17596,14.02229 13.76709,30.27142 12.17532,36.52598 -1.01347,28.21183 -4.30248,38.55249 -7.3052,56.81818 l 12.98703,-0.81169 11.65732,-61.1703 c -1.42606,-29.90819 -9.2093,-43.57231 -14.09239,-58.959566 l 4.87013,-17.045455 -21.1039,-10e-7 z"/><text style="font-size:12.69473648px;font-style:normal;font-weight:400;fill:#000;fill-opacity:1;stroke:none;font-family:Chandas" id="text18678" x="176.581" y="92.087" xml:space="preserve"><tspan id="tspan18680" x="176.581" y="92.087" style="font-weight:700;fill:#fff;-inkscape-font-specification:Chandas Bold">?</tspan></text><text style="font-size:12.69473648px;font-style:normal;font-weight:400;fill:#000;fill-opacity:1;stroke:none;font-family:Chandas" id="text18682" x="192.046" y="152.445" xml:space="preserve"><tspan id="tspan18684" x="192.046" y="152.445" style="font-weight:700;fill:#fff;-inkscape-font-specification:Chandas Bold">?</tspan></text><text style="font-size:12.69473648px;font-style:normal;font-weight:400;fill:#000;fill-opacity:1;stroke:none;font-family:Chandas" id="text18686" x="183.86" y="205.705" xml:space="preserve"><tspan id="tspan18688" x="183.86" y="205.705" style="font-weight:700;fill:#fff;-inkscape-font-specification:Chandas Bold">?</tspan></text></g></g><g id="g10086" transform="matrix(0.8376408,0,0,0.8376408,276.19487,125.69966)"><g id="g10066" transform="translate(209.38777,-139.87929)"><rect id="rect9828" width="31.996" height="41.942" x="1.481" y="2.569" rx=".707" ry=".707" style="opacity:1;fill:#eeeeec;fill-opacity:1;fill-rule:evenodd;stroke:#555753;stroke-width:1.00000048;stroke-linecap:butt;stroke-linejoin:miter;marker:none;marker-start:none;marker-mid:none;marker-end:none;stroke-miterlimit:10;stroke-dasharray:none;stroke-dashoffset:0;stroke-opacity:1;visibility:visible;display:inline;overflow:visible"/><rect id="rect9840" width="31" height="26.759" x="1.979" y="17.241" style="opacity:1;fill:url(#linearGradient10203);fill-opacity:1;fill-rule:evenodd;stroke:none;stroke-width:1;stroke-linecap:butt;stroke-linejoin:miter;marker:none;marker-start:none;marker-mid:none;marker-end:none;stroke-miterlimit:10;stroke-dasharray:none;stroke-dashoffset:0;stroke-opacity:1;visibility:visible;display:inline;overflow:visible"/><path style="opacity:.55428569;fill:#000;fill-opacity:1;fill-rule:evenodd;stroke:none;stroke-width:1px;stroke-linecap:butt;stroke-linejoin:miter;stroke-opacity:1;filter:url(#filter6451)" id="path6425" d="M 2.1041847,43.875 L 23.479185,35 C 23.479185,35 26.992726,32.780416 23.729185,31.5 C 20.314184,30.16016 16.729185,32 16.729185,32 L 2.1041847,43.875 z"/><path id="path9852" d="M 2.0168467,43.944859 L 1.9780137,3.0545252 L 21.92031,3.0987194 L 21.964504,33.018175 L 2.0168467,43.944859 z" style="opacity:1;fill:url(#linearGradient10205);fill-opacity:1;fill-rule:evenodd;stroke:none;stroke-width:1;stroke-linecap:butt;stroke-linejoin:miter;marker:none;marker-start:none;marker-mid:none;marker-end:none;stroke-miterlimit:10;stroke-dasharray:none;stroke-dashoffset:0;stroke-opacity:1;visibility:visible;display:inline;overflow:visible"/><path style="opacity:.42222224;fill:#fff;fill-opacity:1;fill-rule:nonzero;stroke:none;stroke-width:3;stroke-linecap:round;stroke-linejoin:round;marker:none;marker-start:none;marker-mid:none;marker-end:none;stroke-miterlimit:4;stroke-dasharray:none;stroke-dashoffset:0;stroke-opacity:1;visibility:visible;display:block;overflow:visible" id="path1360" d="M 1.9489857,43.944859 L 22.097088,33.062369 L 3.5355337,41.989592 L 3.5355337,3.0103306 L 1.9650707,3.0103306 L 1.9489857,43.944859 z"/><path style="opacity:1;fill:url(#radialGradient10207);fill-opacity:1;fill-rule:evenodd;stroke:none;stroke-width:1;stroke-linecap:butt;stroke-linejoin:miter;marker:none;marker-start:none;marker-mid:none;marker-end:none;stroke-miterlimit:10;stroke-dasharray:none;stroke-dashoffset:0;stroke-opacity:1;visibility:visible;display:inline;overflow:visible" id="path9866" d="M 2.0239957,43.757359 L 1.9791847,3.0545252 L 21.92031,3.0545252 L 21.741064,33.681088 L 2.0239957,43.757359 z"/><path id="path9878" d="M 17.62221,18.456195 L 19.544657,20.908971 L 18.086249,25.726136 C 18.086249,25.726136 18.351414,27.228738 19.124812,26.212272 C 19.89821,25.195806 22.097267,22.630218 21.710171,20.754291 C 21.422909,19.362175 20.627414,18.699263 20.627414,18.699263 L 17.62221,18.456195 z" style="opacity:1;fill:url(#linearGradient10209);fill-opacity:1;fill-rule:evenodd;stroke:none;stroke-width:1;stroke-linecap:butt;stroke-linejoin:miter;marker:none;marker-start:none;marker-mid:none;marker-end:none;stroke-miterlimit:10;stroke-dasharray:none;stroke-dashoffset:0;stroke-opacity:1;visibility:visible;display:inline;overflow:visible"/><path id="path9862" d="M 19.456269,17.35134 C 19.456269,17.35134 21.619539,18.353058 21.688074,19.229593 C 21.789855,20.531315 17.445433,24.665476 17.445433,24.665476 C 16.9372,25.284194 16.097511,24.731767 16.56155,24.135146 C 16.56155,24.135146 20.028154,20.017173 19.809822,19.693631 C 19.536211,19.288174 17.843181,18.655068 17.843181,18.655068 C 16.826715,17.903768 18.110802,16.349605 19.456269,17.35134 z" style="opacity:1;fill:url(#linearGradient10211);fill-opacity:1;fill-rule:evenodd;stroke:none;stroke-width:1;stroke-linecap:butt;stroke-linejoin:miter;marker:none;marker-start:none;marker-mid:none;marker-end:none;stroke-miterlimit:10;stroke-dasharray:none;stroke-dashoffset:0;stroke-opacity:1;visibility:visible;display:inline;overflow:visible"/><path style="opacity:.87428571;fill:url(#linearGradient10213);fill-opacity:1;fill-rule:evenodd;stroke:none;stroke-width:1px;stroke-linecap:butt;stroke-linejoin:miter;stroke-opacity:1;filter:url(#filter6421)" id="path6355" d="M 22.229185,3.5 L 21.729185,33.25 L 3.7291847,43 L 32.979185,43.25 L 32.729185,3.5 L 22.229185,3.5 z"/><g id="g6455" transform="matrix(-1,0,0,1,48.201368,-4.7335e-2)"><path id="path8660" d="m 40.481863,36.421127 c 0,4.637477 -7.004387,8.396894 -15.644737,8.396894 -8.64035,0 -15.6447375,-3.759417 -15.6447375,-8.396894 0,-4.637476 7.0043875,-8.396893 15.6447375,-8.396893 8.64035,0 15.644737,3.759417 15.644737,8.396893 z" transform="matrix(0.77849,0,0,0.77849,-7.579815,1.598139)" style="opacity:.29946522;fill:url(#radialGradient10215);fill-opacity:1;fill-rule:evenodd;stroke:none;stroke-width:1;stroke-linecap:butt;stroke-linejoin:miter;marker:none;marker-start:none;marker-mid:none;marker-end:none;stroke-miterlimit:10;stroke-dasharray:none;stroke-dashoffset:0;stroke-opacity:1;visibility:visible;display:inline;overflow:visible"/><path id="path8643" d="M 1.7317981,17.593819 L 1.7317981,30.355364 L 9.6641034,30.355364 L 9.6641034,36.176147 L 21.887745,23.952503 L 9.5913424,11.656101 L 9.5913424,17.597067 L 1.7317981,17.593819 z" style="opacity:1;fill:#c00;fill-opacity:1;fill-rule:evenodd;stroke:#a40000;stroke-width:1;stroke-linecap:round;stroke-linejoin:round;marker:none;marker-start:none;marker-mid:none;marker-end:none;stroke-miterlimit:10;stroke-dasharray:none;stroke-dashoffset:0;stroke-opacity:1;visibility:visible;display:inline;overflow:visible"/><path id="path8645" d="M 9.9240084,12.478043 L 9.9240084,18.115661 L 2.0746151,18.115661 L 2.0746151,24.53144 C 12.332521,20.703863 11.954992,27.773987 21.29428,23.94641 L 9.9240084,12.478043 z" style="opacity:.5080214;fill:url(#radialGradient10217);fill-opacity:1;fill-rule:evenodd;stroke:none;stroke-width:1;stroke-linecap:round;stroke-linejoin:round;marker:none;marker-start:none;marker-mid:none;marker-end:none;stroke-miterlimit:10;stroke-dasharray:none;stroke-dashoffset:0;stroke-opacity:1;visibility:visible;display:inline;overflow:visible"/><path style="opacity:.48128339;fill:none;fill-opacity:1;fill-rule:evenodd;stroke:url(#linearGradient10219);stroke-width:1.00000012;stroke-linecap:butt;stroke-linejoin:miter;marker:none;marker-start:none;marker-mid:none;marker-end:none;stroke-miterlimit:10;stroke-dasharray:none;stroke-dashoffset:0;stroke-opacity:1;visibility:visible;display:inline;overflow:visible" id="path8658" d="M 2.6834412,18.565933 L 2.6834412,29.355867 L 10.584702,29.355867 L 10.584702,33.481479 L 20.127982,23.941908 L 10.522155,13.997214 L 10.522155,18.568726 L 2.6834412,18.565933 z"/></g></g><text id="text10082" x="218.386" y="-90.447" transform="scale(1.0709177,0.9337786)" xml:space="preserve" style="font-size:9.33778572px;font-style:normal;font-weight:400;text-align:center;line-height:125%;writing-mode:lr-tb;text-anchor:middle;fill:#4d4d4d;fill-opacity:1;stroke:none;stroke-width:1px;stroke-linecap:butt;stroke-linejoin:miter;stroke-opacity:1;font-family:Chandas"><tspan id="tspan10084" x="218.386" y="-90.447">Exit</tspan></text></g><g id="g3985" transform="translate(4,0)"><text id="text3319" x="42.859" y="237.439" xml:space="preserve" style="font-size:10px;font-style:normal;font-weight:400;fill:#000;fill-opacity:1;stroke:none;font-family:Chandas"><tspan id="tspan3321" x="42.859" y="237.439">VALIDATE</tspan></text><rect id="rect3011" width="44.287" height="139.101" x="47.468" y="69.805" style="fill:none;stroke:red;stroke-width:.84253544;stroke-opacity:1"/><path id="path3325" d="m 60.569116,69.963339 c -24.67163,21.111456 -6.28781,31.949661 0.81169,44.642851 6.17596,14.02229 13.76709,30.27142 12.17532,36.52598 -1.01347,28.21183 -4.30248,38.55249 -7.3052,56.81818 l 12.98703,-0.81169 11.657322,-61.1703 C 89.469219,116.06017 81.685977,102.39605 76.802886,87.008795 l 4.87013,-17.045455 -21.1039,-10e-7 z" style="fill:#000;fill-opacity:1;fill-rule:evenodd;stroke:#000;stroke-width:1px;stroke-linecap:butt;stroke-linejoin:miter;stroke-opacity:1"/><rect id="rect3327" width="5.682" height="5.682" x="63.811" y="84.156" style="fill:#fff;fill-opacity:1;stroke:none"/><rect id="rect3329" width="5.682" height="5.682" x="79.965" y="144.356" style="fill:#fff;fill-opacity:1;stroke:none"/><rect id="rect3331" width="5.682" height="5.682" x="71.18" y="198.377" style="fill:#fff;fill-opacity:1;stroke:none"/><path id="path3870" d="m 100.39136,209.13951 0,-63.3408" style="fill:none;stroke:red;stroke-width:.99391675px;stroke-linecap:butt;stroke-linejoin:miter;stroke-opacity:1"/><path id="path3870-9" d="m 91.365717,145.97687 8.54056,0" style="fill:#333;stroke:#4a2121;stroke-width:.36500001;stroke-linecap:butt;stroke-linejoin:miter;stroke-miterlimit:4;stroke-opacity:1;stroke-dasharray:.73,.365;stroke-dashoffset:0"/></g></g></svg>