<svg xmlns="http://www.w3.org/2000/svg" xmlns:svg="http://www.w3.org/2000/svg" id="svg6" width="17" height="17" version="1.1" viewBox="0 0 17 17" style="fill:#000"><metadata id="metadata12"/><path id="path2" d="M -7.1940693,-1.0741149 H 16.805931 V 22.925885 H -7.1940693 Z" style="fill:none"/><path style="fill:#0e1e46;fill-opacity:1;stroke-width:1.00000012" id="path4" d="M 7.9737309,4.0702897 C 9.0620844,4.0068361 9.9020349,3.0398448 9.8402875,1.9214188 9.7785381,0.8029928 8.8375498,-0.06016676 7.7491963,0.0032863 6.6608428,0.0667389 5.8208922,1.0337312 5.8826387,2.1521571 5.9443877,3.2705831 6.8853774,4.1337428 7.9737309,4.0702897 Z M 3.5099499,9.2963911 5.8440302,6.8465165 6.6804667,7.6137696 C 8.0396762,8.860556 8.5723157,9.2427331 10.549403,9.6645151 L 10.451913,7.8986776 C 8.9407033,7.4944873 8.9854917,7.2953283 8.1007755,6.3714553 L 6.0994603,4.2815655 C 5.5823013,3.9037074 5.0763683,3.7291996 4.4827207,3.7638103 3.8890741,3.7984211 3.4055943,4.0306136 3.1312242,4.4546193 L 0.51804403,7.4630386 C 0.14473251,7.8928128 -0.02508314,8.4127251 0.00298366,8.9211 0.0366639,9.5311511 0.26261294,10.02799 0.67521794,10.309941 L 4.6252924,12.700879 2.3079837,16.989714 4.0353224,17 6.765688,12.414793 C 6.3237907,10.979392 4.6521595,9.7522051 3.5099499,9.2963861 Z"/><text style="font-style:normal;font-weight:400;font-size:3.23164797px;line-height:125%;font-family:Sans;letter-spacing:0;word-spacing:0;fill:#000;fill-opacity:1;stroke:none;stroke-width:1px;stroke-linecap:butt;stroke-linejoin:miter;stroke-opacity:1" id="text4495" x="-12.929" y="16.01" xml:space="preserve"><tspan id="tspan4493" x="-12.929" y="16.01" style="font-size:.86177284px;stroke-width:1px">1n</tspan></text><text style="font-style:normal;font-weight:400;font-size:3.23164797px;line-height:125%;font-family:Sans;letter-spacing:0;word-spacing:0;fill:#000;fill-opacity:1;stroke:none;stroke-width:1px;stroke-linecap:butt;stroke-linejoin:miter;stroke-opacity:1" id="text4495-3" x="-12.553" y="17.003" xml:space="preserve"><tspan id="tspan4493-6" x="-12.553" y="17.003" style="font-style:normal;font-variant:normal;font-weight:400;font-stretch:normal;font-size:.86177284px;font-family:'Droid Sans';-inkscape-font-specification:'Droid Sans';stroke-width:12.37758541px">1n</tspan></text><text style="font-style:normal;font-weight:400;font-size:17.96172905px;line-height:125%;font-family:Sans;letter-spacing:0;word-spacing:0;fill:#0e1e46;fill-opacity:1;stroke:none;stroke-width:1px;stroke-linecap:butt;stroke-linejoin:miter;stroke-opacity:1" id="text4495-3-2" x="12.03" y="7.615" xml:space="preserve"><tspan id="tspan4493-6-0" x="12.03" y="7.615" style="font-style:normal;font-variant:normal;font-weight:400;font-stretch:normal;font-size:10.66666698px;font-family:'Droid Sans Mono';-inkscape-font-specification:'Droid Sans Mono';fill:#0e1e46;fill-opacity:1;stroke-width:1px">1</tspan></text><text style="font-style:normal;font-weight:400;font-size:3.23164797px;line-height:125%;font-family:Sans;letter-spacing:0;word-spacing:0;fill:#000;fill-opacity:1;stroke:none;stroke-width:1px;stroke-linecap:butt;stroke-linejoin:miter;stroke-opacity:1" id="text4495-3-2-3" x="-11.571" y="16.21" xml:space="preserve"><tspan id="tspan4493-6-0-8" x="-11.571" y="16.21" style="font-style:normal;font-variant:normal;font-weight:400;font-stretch:normal;font-size:.86177284px;font-family:Ubuntu;-inkscape-font-specification:Ubuntu;stroke-width:1px">1n</tspan></text><text style="font-style:normal;font-weight:400;font-size:3.23164797px;line-height:125%;font-family:Sans;letter-spacing:0;word-spacing:0;fill:#000;fill-opacity:1;stroke:none;stroke-width:1px;stroke-linecap:butt;stroke-linejoin:miter;stroke-opacity:1" id="text4495-3-2-3-9" x="-11.483" y="17.193" xml:space="preserve"><tspan id="tspan4493-6-0-8-7" x="-11.483" y="17.193" style="font-style:normal;font-variant:normal;font-weight:400;font-stretch:normal;font-size:.86177284px;font-family:'Ubuntu Mono';-inkscape-font-specification:'Ubuntu Mono';stroke-width:1px">1n</tspan></text><text style="font-style:normal;font-weight:400;font-size:17.96172905px;line-height:125%;font-family:Sans;letter-spacing:0;word-spacing:0;fill:#0e1e46;fill-opacity:1;stroke:none;stroke-width:1px;stroke-linecap:butt;stroke-linejoin:miter;stroke-opacity:1" id="text4495-3-2-35" x="17.432" y="7.615" xml:space="preserve"><tspan id="tspan4493-6-0-9" x="17.432" y="7.615" style="font-style:normal;font-variant:normal;font-weight:400;font-stretch:normal;font-size:10.66666698px;font-family:'Droid Sans Mono';-inkscape-font-specification:'Droid Sans Mono';fill:#0e1e46;fill-opacity:1;stroke-width:1px">n</tspan></text></svg>