<svg xmlns="http://www.w3.org/2000/svg" xmlns:svg="http://www.w3.org/2000/svg" id="svg3480" width="184" height="184" version="1.1"><metadata id="metadata3485"/><g id="capa1" transform="translate(-282.28571,-666.07647)"><path style="fill:#243c7c;fill-opacity:1;stroke:none" id="path4053" d="m 409.451,721.53594 c 1.57083,0.9828 32.95156,8.41696 32.95156,8.41696 l -32.90926,3.91115 z"/><path style="fill:#243c7c;fill-opacity:1;stroke:none" id="path4051" d="m 337.26504,743.38448 72.02303,-9.54497 0.0423,-12.0313 -89.34455,9.56429 z"/><path style="fill:#0e1e46;fill-opacity:1;stroke:none" id="path3259" d="m 337.59889,850.71259 0,-108.39348 106.43542,-11.69251 1.8808,18.51382 0.37615,79.70355 z"/><path id="Unnamed #3" d="m 337.80896,850.30438 c 0,0 -0.26426,-107.55087 -0.26426,-107.55087" style="fill:none;stroke:#000;stroke-width:.67043173"/><path id="Unnamed #2" d="m 409.34831,721.82382 c 0,0 0,12.0263 0,12.0263" style="fill:none;stroke:#000;stroke-width:.67043173"/><path style="fill:#fff;stroke:none" id="path3117" d="m 444.05202,729.97468 c 1.0121,-2.19287 14.00063,-22.60342 14.00063,-22.60342 l -34.91723,-6.57861 c 0,0 -14.39358,20.64009 -13.55016,20.80878 0.84341,0.16868 34.46676,8.37325 34.46676,8.37325 z"/><path id="Unnamed #1" d="m 336.56109,742.31875 c 0,0 -17.15447,-23.80767 -17.15447,-23.80767 0,0 -22.57167,-8.34003 -22.57167,-8.34003 0,0 15.13586,22.04413 15.13586,22.04413 0,0 24.59028,10.10357 24.59028,10.10357 0,0 24.40677,18.52319 24.40677,18.52319 0,0 102.86075,-14.16335 102.86075,-14.16335 0,0 -19.91445,-16.60658 -19.91445,-16.60658 0,0 -34.40436,-8.34616 -34.40436,-8.34616 0,0 -81.47823,8.57272 -81.47823,8.57272 0,0 8.62495,12.09365 8.62495,12.09365 0,0 107.25764,-12.32021 107.25764,-12.32021" style="fill:none;stroke:#000;stroke-width:.67043173"/><path style="fill:#fff;stroke:none" id="path3117-6" d="m 409.33168,721.55405 c 1.0121,-2.19287 -4.80169,-23.65199 -4.80169,-23.65199 l -94.1612,6.70322 c 0,0 6.57773,26.05769 7.42115,26.22637 0.84341,0.16868 91.54174,-9.2776 91.54174,-9.2776 z"/><path style="fill:#0e2562;fill-opacity:1;stroke:none" id="path3259-1" d="m 312.87786,834.73383 -0.56318,-102.84528 c 25.92112,10.11084 -8.14537,-2.48986 25.27469,10.1183 l 0.10714,108.10561 z"/><path id="Unnamed" d="m 311.14869,713.99816 -16.33235,-5.13138 16.33235,23.19532 0.36702,102.9461 25.96293,15.6146 108.82115,-22.04414 -0.55053,-78.29954 19.81902,-3.06168 -20.00253,-16.99235 14.40916,-23.72806 -37.06892,-6.12337 -12.92095,18.34448 -5.52543,-21.33269 -94.5074,7.50113 1.28457,9.11158" style="fill:none;stroke:#000;stroke-width:2.77109575;stroke-miterlimit:4;stroke-dasharray:none"/><path style="fill:#fff;stroke:none" id="path4047" d="m 337.65775,742.72928 23.56257,17.69038 102.10447,-14.08678 -19.24277,-16.05238 z"/><path style="fill:#243c7c;fill-opacity:1;stroke:#000;stroke-width:.9133473px;stroke-linecap:butt;stroke-linejoin:miter;stroke-opacity:1" id="path4049" d="m 311.34621,731.5909 -13.74483,-20.96638 21.99173,7.53479 16.88651,23.91477 z"/><path style="fill:#000;stroke:none" id="path3921" d="m 312.31699,712.17055 0.93198,3.53485 -4.26573,-1.15659 z"/><path style="fill:#e7be19;fill-opacity:1;stroke:none" id="path3623-5-9-4-0-7-5" d="m 378.86665,677.02634 c -4.75457,0.10688 -8.13687,2.18377 -9.65625,4.09375 -4.40248,1.52502 -52.35066,78.51992 -77.09375,35.84375 6.1588,19.34576 12.10056,36.01261 55.8125,3.09375 13.06474,-1.17128 23.91449,5.83792 32.1875,17 l 13.4375,-1.65625 c 0.78593,-4.01164 2.82071,-6.68586 6.5,-7.65625 6.81291,0.0454 14.54841,5.82271 0,17.9375 3.43905,3.69013 8.68137,3.21997 14.90625,-15.90625 9.53996,3.15688 7.95512,-10.62594 20.71875,-17.9375 6.76838,-1.76406 23.89719,0.48432 18.09375,-6.125 -7.71509,-5.64374 -13.74369,-6.50459 -18.625,-6.6875 -6.7838,-8.42737 -11.4933,-6.94394 -17,-9.21875 4.62447,3.89134 11.91601,11.22826 12.75,10.25 -5.26683,10.52291 -15.57721,7.08745 -19.125,2.5625 -13.2339,-20.51648 -24.98196,-25.77187 -32.90625,-25.59375 z"/><g id="g3182-0-1-5" transform="matrix(0.67800456,-0.13537246,0,0.67592405,129.38759,295.19115)"><text id="text2985-7-8-9-6-2-8-5-7-4-5-8-4-9-3-2-5-2-6-0-3-4-3-6-6-4-3-9-1-8-0-3-2-8-1-1-1-0" x="386.111" y="821.378" xml:space="preserve" style="font-size:43.44813919px;font-style:normal;font-weight:400;text-align:center;line-height:125%;letter-spacing:0;word-spacing:0;text-anchor:middle;fill:#fff;fill-opacity:1;stroke:none;font-family:Sans"><tspan id="tspan3157-7-1-3" x="386.111" y="821.378" style="font-style:normal;font-variant:normal;font-weight:400;font-stretch:condensed;text-align:center;text-anchor:middle;fill:#fff;fill-opacity:1;font-family:Liberation Sans Narrow;-inkscape-font-specification:Liberation Sans Narrow Condensed">CHRONO</tspan></text><text id="text2985-7-8-9-6-2-8-5-7-4-5-8-4-9-3-2-5-2-6-0-3-4-3-6-6-4-3-9-1-8-0-3-2-8-1-4-1-9-3" x="386.111" y="866.236" xml:space="preserve" style="font-size:43.44813919px;font-style:normal;font-variant:normal;font-weight:400;font-stretch:normal;text-align:center;line-height:125%;letter-spacing:0;word-spacing:0;text-anchor:middle;fill:#fff;fill-opacity:1;stroke:none;font-family:FreeSans;-inkscape-font-specification:FreeSans"><tspan id="tspan3157-9-5-3-4" x="386.111" y="866.236" style="font-style:normal;font-variant:normal;font-weight:400;font-stretch:condensed;text-align:center;text-anchor:middle;fill:#fff;fill-opacity:1;font-family:Liberation Sans Narrow;-inkscape-font-specification:Liberation Sans Narrow Condensed">JUMP</tspan></text></g><text style="font-size:40px;font-style:normal;font-weight:400;line-height:125%;letter-spacing:0;word-spacing:0;fill:#000;fill-opacity:1;stroke:none;font-family:Sans" id="text4118" x="114.047" y="510.54" xml:space="preserve"><tspan id="tspan4120" x="114.047" y="510.54">chronojump_icon_install.png</tspan><tspan id="tspan4122" x="114.047" y="560.54">48x48</tspan></text></g></svg>