<svg xmlns="http://www.w3.org/2000/svg" xmlns:svg="http://www.w3.org/2000/svg" xmlns:xlink="http://www.w3.org/1999/xlink" id="svg2" width="653.068" height="402.264" version="1.0" viewBox="0 0 612.251 377.122"><defs id="defs4"><linearGradient id="linearGradient3366"><stop id="stop3368" offset="0" style="stop-color:#777"/><stop id="stop3370" offset="1" style="stop-color:#282828"/></linearGradient><linearGradient id="linearGradient3329"><stop id="stop3331" offset="0" style="stop-color:#444"/><stop id="stop3333" offset="1" style="stop-color:#000"/></linearGradient><linearGradient id="linearGradient3297"><stop id="stop3299" offset="0" style="stop-color:#000;stop-opacity:0"/><stop id="stop3301" offset="1" style="stop-color:#000"/></linearGradient><linearGradient id="linearGradient4173" x1="391.13" x2="399.06" y1="463.57" y2="493.11" gradientTransform="matrix(0.88170142,0,0,1,-318.64706,-443.40714)" gradientUnits="userSpaceOnUse" xlink:href="#linearGradient30038-0-4-1-3-8-11-1-78"/><linearGradient id="linearGradient4175" x1="344.892" x2="365.794" y1="593.961" y2="530.439" gradientTransform="matrix(0.88170142,0,0,1,-318.64706,-443.40714)" gradientUnits="userSpaceOnUse" xlink:href="#linearGradient30038-0-4-1-3-8-11-1-78"/><linearGradient id="linearGradient4177" x1="494.541" x2="524.118" y1="509.857" y2="611.203" gradientTransform="matrix(0.88170142,0,0,1,-318.64706,-443.40714)" gradientUnits="userSpaceOnUse" xlink:href="#linearGradient30038-0-4-1-3-7-1-8-8"/><linearGradient id="linearGradient4179" x1="431.9" x2="446.06" y1="492.56" y2="512.14" gradientTransform="matrix(0.88170142,0,0,1,-318.64706,-443.40714)" gradientUnits="userSpaceOnUse" xlink:href="#linearGradient3366"/><radialGradient id="radialGradient4181" cx="406.46" cy="444.92" r="9.484" gradientTransform="matrix(3.5174596,0,0,3.0483059,-1372.1921,-1340.0768)" gradientUnits="userSpaceOnUse"><stop id="stop3271" offset="0" style="stop-color:#fff"/><stop id="stop3273" offset="1" style="stop-color:#5f5f5f;stop-opacity:0"/></radialGradient><radialGradient id="radialGradient4183" cx="406.46" cy="444.92" r="9.484" gradientTransform="matrix(3.5174596,0,0,3.0483059,-1372.1921,-1340.0768)" gradientUnits="userSpaceOnUse"><stop id="stop3289" offset="0" style="stop-color:#000;stop-opacity:0"/><stop id="stop3295" offset=".5" style="stop-color:#000;stop-opacity:.054902"/><stop id="stop3291" offset="1" style="stop-color:#777;stop-opacity:.60234"/></radialGradient><linearGradient id="linearGradient4185" x1="408.5" x2="412.45" y1="441.12" y2="447.18" gradientTransform="matrix(3.5174596,0,0,3.2405,-1371.8326,-1408.9144)" gradientUnits="userSpaceOnUse" xlink:href="#linearGradient3297"/><radialGradient id="radialGradient4187" cx="387.77" cy="437.36" r="9.484" gradientTransform="matrix(0.43632068,0.38937848,-1.8423847,1.3621442,770.17336,-739.18005)" gradientUnits="userSpaceOnUse" xlink:href="#linearGradient5962-52"><stop id="stop3313" offset="0" style="stop-color:#fff;stop-opacity:.35673"/><stop id="stop3315" offset="1" style="stop-color:#fff;stop-opacity:0"/></radialGradient><linearGradient id="linearGradient4189" x1="429.61" x2="432.41" y1="482.04" y2="493.87" gradientTransform="matrix(1.6027,0,0,1,-531.46,-432.3318)" gradientUnits="userSpaceOnUse" xlink:href="#linearGradient3297"/><linearGradient id="linearGradient5962-52"><stop style="stop-color:#fff842;stop-opacity:1" id="stop5964-65" offset="0"/><stop style="stop-color:#f3ff80;stop-opacity:0" id="stop5966-4" offset="1"/></linearGradient><linearGradient id="linearGradient30038-0-4-1-3-7-1-8-8" x1="175.72" x2="470" y1="737.02" y2="737.02" gradientTransform="matrix(0.47131,0,0,0.47131,8046.6,409.49)" gradientUnits="userSpaceOnUse"><stop id="stop12003-8-7-3-2-58-7-4-4" offset="0" stop-color="#1b4a78" style="stop-color:#ddd;stop-opacity:1"/><stop id="stop12005-3-5-4-7-2-6-9-5" offset="1" stop-color="#5dacd1" style="stop-color:#244457;stop-opacity:1"/></linearGradient><linearGradient id="linearGradient30038-0-4-1-3-8-11-1-78" x1="175.72" x2="470" y1="737.02" y2="737.02" gradientTransform="matrix(0.47131,0,0,0.47131,8046.6,409.49)" gradientUnits="userSpaceOnUse"><stop id="stop12003-8-7-3-2-5-9-3-1" offset="0" stop-color="#1b4a78" style="stop-color:#19262e;stop-opacity:1"/><stop id="stop12005-3-5-4-7-7-4-6-9" offset="1" stop-color="#5dacd1" style="stop-color:#244457;stop-opacity:1"/></linearGradient><radialGradient id="radialGradient9437" cx="157.421" cy="28.899" r="37.839" fx="157.421" fy="28.899" gradientTransform="matrix(0.88170142,0,0,0.76432017,-81.266582,-5.8961246)" gradientUnits="userSpaceOnUse" xlink:href="#linearGradient30038-0-4-1-3-7-1-8-8"/></defs><g id="g9465" transform="translate(399.38737,12.729145)"><path id="rect2423" d="m -12.987624,38.602855 75.552995,-12.48 77.466289,12.57 -81.680822,15.49 z" style="fill:url(#linearGradient4173);fill-opacity:1;stroke:#000;stroke-width:1.06497455;stroke-linecap:round;stroke-linejoin:round"/><path id="rect2417" d="m -13.040526,38.602855 70.686003,15.12 8.323261,154.460005 -146.794469,-50.64001 z" style="fill:url(#linearGradient4175);fill-opacity:1;stroke:#000;stroke-width:1.06497455;stroke-linecap:round;stroke-linejoin:round"/><path id="rect2419" d="m 57.566124,54.192855 82.342096,-15.59 72.42295,124.189995 -145.639437,45.39 z" style="fill:url(#linearGradient4177);fill-opacity:1;stroke:url(#linearGradient4179);stroke-width:1.06497455;stroke-linecap:round;stroke-linejoin:round"/><path style="stroke-width:3.59550428" id="path2446" d="m 57.479391,-12.729145 c -18.431492,0 -33.310345,12.994405 -33.310345,28.97007 0,15.94326 14.878853,28.872855 33.310345,28.872855 18.396312,0 33.415866,-12.929595 33.415866,-28.872855 0,-15.975665 -15.019554,-28.97007 -33.415866,-28.97007 z m 0,11.438965 c 11.115169,0 20.225393,7.874415 20.225393,17.531105 0,9.65669 -9.110224,17.401485 -20.225393,17.401485 -11.150349,0 -20.119871,-7.744795 -20.119871,-17.401485 0,-9.65669 8.969522,-17.531105 20.119871,-17.531105 z"/><path style="fill:url(#radialGradient4181);stroke-width:3.59550428" id="path2497" d="m 57.479391,-12.729145 c -18.431492,0 -33.310345,12.994405 -33.310345,28.97007 0,15.94326 14.878853,28.872855 33.310345,28.872855 18.396312,0 33.415866,-12.929595 33.415866,-28.872855 0,-15.975665 -15.019554,-28.97007 -33.415866,-28.97007 z m 0,11.438965 c 11.115169,0 20.225393,7.874415 20.225393,17.531105 0,9.65669 -9.110224,17.401485 -20.225393,17.401485 -11.150349,0 -20.119871,-7.744795 -20.119871,-17.401485 0,-9.65669 8.969522,-17.531105 20.119871,-17.531105 z"/><path style="fill:url(#radialGradient4183);stroke-width:3.59550428" id="path3277" d="m 57.479391,-12.729145 c -18.431492,0 -33.310345,12.994405 -33.310345,28.97007 0,15.94326 14.878853,28.872855 33.310345,28.872855 18.396312,0 33.415866,-12.929595 33.415866,-28.872855 0,-15.975665 -15.019554,-28.97007 -33.415866,-28.97007 z m 0,11.438965 c 11.115169,0 20.225393,7.874415 20.225393,17.531105 0,9.65669 -9.110224,17.401485 -20.225393,17.401485 -11.150349,0 -20.119871,-7.744795 -20.119871,-17.401485 0,-9.65669 8.969522,-17.531105 20.119871,-17.531105 z"/><path style="fill:url(#linearGradient4185);stroke-width:3.59550428" id="path2495" d="m 57.479391,-12.729145 c -18.431492,0 -33.310345,12.994405 -33.310345,28.97007 0,15.94326 14.878853,28.872855 33.310345,28.872855 18.396312,0 33.415866,-12.929595 33.415866,-28.872855 0,-15.975665 -15.019554,-28.97007 -33.415866,-28.97007 z m 0,11.438965 c 11.115169,0 20.225393,7.874415 20.225393,17.531105 0,9.65669 -9.110224,17.401485 -20.225393,17.401485 -11.150349,0 -20.119871,-7.744795 -20.119871,-17.401485 0,-9.65669 8.969522,-17.531105 20.119871,-17.531105 z"/><path style="fill:url(#radialGradient9437);fill-opacity:1;stroke-width:3.59550428" id="path2493" d="m 57.479391,-12.729145 c -18.431492,0 -33.310345,12.994405 -33.310345,28.97007 0,15.94326 14.878853,28.872855 33.310345,28.872855 18.396312,0 33.415866,-12.929595 33.415866,-28.872855 0,-15.975665 -15.019554,-28.97007 -33.415866,-28.97007 z m 0,11.438965 c 11.115169,0 20.225393,7.874415 20.225393,17.531105 0,9.65669 -9.110224,17.401485 -20.225393,17.401485 -11.150349,0 -20.119871,-7.744795 -20.119871,-17.401485 0,-9.65669 8.969522,-17.531105 20.119871,-17.531105 z"/></g><metadata id="metadata43"/><g id="g5524"><ellipse id="path4654" cx="102.258" cy="94.684" rx="31.417" ry="31.668" style="opacity:1;fill:none;fill-opacity:1;stroke:#0e1e46;stroke-width:18.75;stroke-linecap:square;stroke-linejoin:miter;stroke-miterlimit:4;stroke-dasharray:none;stroke-dashoffset:0;stroke-opacity:1"/><g style="fill:none;fill-opacity:1;stroke:#0e1e46;stroke-width:1.68849778;stroke-miterlimit:4;stroke-dasharray:none;stroke-opacity:1" id="g4675" transform="matrix(11.088205,0,0,11.12091,-6259.3592,-4442.0988)"><path style="fill:none;fill-opacity:1;fill-rule:evenodd;stroke:#0e1e46;stroke-width:1.68849778;stroke-linecap:butt;stroke-linejoin:miter;stroke-miterlimit:4;stroke-dasharray:none;stroke-opacity:1" id="path4656" d="m 573.08249,421.07375 h 8.51521 l -3.4709,-10.13105 h -5.04431"/><path style="fill:none;fill-opacity:1;fill-rule:evenodd;stroke:#0e1e46;stroke-width:1.68849778;stroke-linecap:butt;stroke-linejoin:miter;stroke-miterlimit:4;stroke-dasharray:none;stroke-opacity:1" id="path4656-3" d="m 574.3741,421.07375 h -8.51521 l 3.4709,-10.13105 h 5.04431"/></g></g><text style="font-style:normal;font-weight:400;font-size:37.5px;line-height:125%;font-family:Sans;letter-spacing:0;word-spacing:0;fill:#000;fill-opacity:1;stroke:none;stroke-width:.9375px;stroke-linecap:butt;stroke-linejoin:miter;stroke-opacity:1" id="text5400" x="7.362" y="351.127" xml:space="preserve"><tspan id="tspan5398" x="7.362" y="351.127" style="stroke-width:.9375px">selection height 24</tspan></text><g id="g14953" transform="translate(-343.00414,-416.96042)"><path id="path14897" d="m 15.877667,685.19085 147.517473,50.64 -8.3409,-154 -71.338463,-15.58 z" style="fill:none;fill-rule:evenodd;stroke:#0e1e46;stroke-width:15;stroke-linecap:butt;stroke-linejoin:round;stroke-miterlimit:4;stroke-dasharray:none;stroke-opacity:1"/><path id="path14899" d="m 163.39514,735.83085 145.63943,-45.39 -72.42295,-124.19 -81.55738,15.58 z" style="fill:none;fill-rule:evenodd;stroke:#0e1e46;stroke-width:15;stroke-linecap:butt;stroke-linejoin:round;stroke-miterlimit:4;stroke-dasharray:none;stroke-opacity:1"/><path id="path14901" d="m 83.715777,562.50085 71.338463,15.58 81.68082,-15.49 -77.46629,-12.57 z" style="fill:#0e1e46;fill-opacity:1;fill-rule:evenodd;stroke:#0e1e46;stroke-width:7.5;stroke-linecap:butt;stroke-linejoin:round;stroke-miterlimit:4;stroke-dasharray:none;stroke-opacity:1"/><ellipse id="path4654-3-3" cx="160.175" cy="522.846" rx="31.417" ry="31.668" style="opacity:1;fill:none;fill-opacity:1;stroke:#0e1e46;stroke-width:18.75;stroke-linecap:square;stroke-linejoin:miter;stroke-miterlimit:4;stroke-dasharray:none;stroke-dashoffset:0;stroke-opacity:1"/></g></svg>