<svg xmlns="http://www.w3.org/2000/svg" xmlns:svg="http://www.w3.org/2000/svg" xmlns:xlink="http://www.w3.org/1999/xlink" id="svg6736" width="16" height="16.006" version="1.1" viewBox="0 0 4.233 4.235"><defs id="defs6730"><radialGradient id="radialGradient2858" cx="25" cy="28.66" r="16" gradientTransform="matrix(0.14866144,0,0,0.04177242,-86.449871,26.912593)" gradientUnits="userSpaceOnUse" xlink:href="#linearGradient6954"/><linearGradient id="linearGradient6954"><stop id="stop6960" offset="0" style="stop-color:#f5f5f5"/><stop id="stop6962" offset="1" style="stop-color:#d2d2d2"/></linearGradient><linearGradient id="linearGradient2860" x1="30" x2="30" y1="25.085" y2="45" gradientTransform="matrix(0.11326548,0,0,0.11191081,-85.564972,24.64059)" gradientUnits="userSpaceOnUse" xlink:href="#linearGradient3785"/><linearGradient id="linearGradient3785"><stop id="stop3787" offset="0" style="stop-color:#b8b8b8"/><stop id="stop3789" offset="1" style="stop-color:#878787"/></linearGradient><radialGradient id="radialGradient2863" cx="26.376" cy="12.313" r="8" gradientTransform="matrix(0.14618229,-0.01128183,0.01141836,0.13486341,-86.485431,24.977166)" gradientUnits="userSpaceOnUse" xlink:href="#linearGradient6954"/><linearGradient id="linearGradient2865" x1="30" x2="30" y1="5" y2="44.679" gradientTransform="matrix(0.08912754,0,0,0.08509264,-84.845814,25.421984)" gradientUnits="userSpaceOnUse" xlink:href="#linearGradient3785"/><linearGradient id="linearGradient2867" x1="30" x2="30" y1=".918" y2="25.793" gradientTransform="matrix(0.08912754,0,0,0.08509264,-84.845814,25.421984)" gradientUnits="userSpaceOnUse" xlink:href="#linearGradient3341"/><linearGradient id="linearGradient3341"><stop id="stop3343" offset="0" style="stop-color:#fff"/><stop id="stop3345" offset="1" style="stop-color:#fff;stop-opacity:0"/></linearGradient><linearGradient id="linearGradient2869" x1="29.956" x2="29.956" y1="21.866" y2="43.144" gradientTransform="matrix(0.11326548,0,0,0.11191081,-85.564972,24.64059)" gradientUnits="userSpaceOnUse" xlink:href="#linearGradient3341"/><radialGradient id="radialGradient2455" cx="23.896" cy="3.99" r="20.397" gradientTransform="matrix(0,0.12416135,-0.16388953,0,-80.062876,24.702704)" gradientUnits="userSpaceOnUse"><stop id="stop3761" offset="0" style="stop-color:#8badea"/><stop id="stop3763" offset=".262" style="stop-color:#6396cd"/><stop id="stop3765" offset=".661" style="stop-color:#3b7caf"/><stop id="stop3767" offset="1" style="stop-color:#194c70"/></radialGradient><linearGradient id="linearGradient2457" x1="18.379" x2="18.379" y1="44.98" y2="3.082" gradientTransform="matrix(0.05202287,0,0,0.05202287,-81.965377,27.55928)" gradientUnits="userSpaceOnUse"><stop id="stop3771" offset="0" style="stop-color:#1f4b6a"/><stop id="stop3773" offset="1" style="stop-color:#4083c2"/></linearGradient></defs><metadata id="metadata6733"/><g id="layer1" transform="translate(83.759526,-25.763436)"><g id="g7438"><path style="fill:url(#radialGradient2858);stroke:url(#linearGradient2860);stroke-width:.26460978;stroke-linejoin:round" id="path2880" d="m -82.47792,27.219907 c -0.02135,0.179943 0.156131,0.555651 0.05786,0.719349 -0.38227,0.133561 -1.071271,0.377349 -1.107942,0.537421 -0.02709,0.248709 -0.06771,0.611453 -0.09922,0.859896 0.670163,0.362003 2.246789,0.344541 2.894012,0 -0.02283,-0.176191 -0.04331,-0.683709 -0.06615,-0.859896 -0.173038,-0.206639 -0.628386,-0.327289 -1.108075,-0.537421 -0.125413,-0.163036 0.06429,-0.527368 0.02487,-0.711094 -0.07594,-0.01302 -0.518636,-0.0063 -0.595365,-0.0083 z"/><path style="fill:url(#radialGradient2863);stroke:url(#linearGradient2865);stroke-width:.25059745" id="path2870" d="m -82.172009,25.888735 c -0.369173,0 -0.669713,0.26633 -0.669713,0.595312 0.0029,0.121746 0.0156,0.266039 0.09095,0.595313 0.04456,0.12764 0.442887,0.470085 0.446485,0.51263 0.08642,0.04255 0.225065,0.04255 0.314193,0 0,-0.04255 0.352319,-0.384995 0.396875,-0.51263 0.08479,-0.342212 0.0864,-0.467678 0.09095,-0.595313 0,-0.328982 -0.30054,-0.595312 -0.669713,-0.595312 z"/><path style="fill:none;stroke:url(#linearGradient2867);stroke-width:.25059745" id="path2866" d="m -82.172009,26.153318 c -0.162031,-0.0039 -0.335227,0.08745 -0.38862,0.248021 -0.03005,0.108609 -0.0027,0.221414 0.0083,0.330729 0.01382,0.08947 0.02997,0.176234 0.04961,0.264583 0.05135,0.04536 0.09555,0.105162 0.148828,0.148828 0.06969,0.06776 0.129884,0.137928 0.198332,0.206719 0.07117,-0.05749 0.118798,-0.133164 0.182033,-0.198437 0.04048,-0.04757 0.08202,-0.102553 0.12409,-0.148828 0.04154,-0.187934 0.08969,-0.376291 0.07435,-0.570521 -0.03307,-0.18169 -0.224103,-0.285645 -0.396875,-0.281094 z"/><path style="fill:none;stroke:url(#linearGradient2869);stroke-width:.26460978;stroke-linejoin:round" id="path2876" d="m -82.172009,27.897901 c 0.0108,0.163637 -0.12819,0.291307 -0.281119,0.314193 -0.280935,0.0999 -0.57285,0.186928 -0.826823,0.347266 -0.05946,0.143065 -0.02758,0.307102 -0.06615,0.454766 -0.08756,0.187579 0.150569,0.205332 0.272838,0.239778 0.596927,0.143066 1.230868,0.132043 1.827265,-0.0083 0.08886,-0.04461 0.301176,-0.02247 0.248047,-0.165365 -0.0164,-0.15531 -0.02408,-0.315118 -0.03307,-0.471222 -0.243416,-0.187325 -0.55192,-0.253207 -0.826558,-0.380471 -0.217752,-0.03069 -0.225689,-0.190262 -0.314325,-0.330597 z"/><path style="fill:url(#radialGradient2455);stroke:url(#linearGradient2457);stroke-width:.26457173;stroke-linecap:round;stroke-linejoin:round" id="path2449" d="m -80.716827,27.749488 c -0.583957,0 -1.058347,0.47439 -1.058347,1.058346 0,0.583957 0.47439,1.058347 1.058347,1.058347 0.583957,0 1.058346,-0.47439 1.058346,-1.058347 0,-0.583956 -0.474389,-1.058346 -1.058346,-1.058346 z"/><text id="text7429" x="-81.269" y="29.779" xml:space="preserve" style="font-style:normal;font-weight:400;font-size:2.78968668px;line-height:125%;font-family:Sans;letter-spacing:0;word-spacing:0;fill:#fff;fill-opacity:1;stroke:none;stroke-width:.26458332px;stroke-linecap:butt;stroke-linejoin:miter;stroke-opacity:1"><tspan style="font-style:normal;font-variant:normal;font-weight:500;font-stretch:normal;font-family:Ubuntu;-inkscape-font-specification:'Ubuntu Medium';fill:#fff;stroke-width:.26458332px" id="tspan7427" x="-81.269" y="29.779">?</tspan></text></g></g></svg>