<svg xmlns="http://www.w3.org/2000/svg" xmlns:svg="http://www.w3.org/2000/svg" id="svg2" width="744.094" height="1052.362" version="1.1"><metadata id="metadata7"/><g id="capa1"><g id="g4265" transform="translate(137.2102,-308.05593)"><rect id="rect3334-0" width="564.204" height="434.419" x="-63.593" y="719.472" style="fill:#fff;fill-opacity:1;stroke:none"/><g id="g4252" transform="translate(-104.60883,352.60521)"><rect style="fill:#0a0a0a;fill-opacity:1;stroke:#2e2d33;stroke-width:20;stroke-linejoin:round;stroke-miterlimit:4;stroke-opacity:1;stroke-dasharray:none" id="rect3334" width="517.075" height="391.574" x="64.58" y="388.289" ry="55.698"/><g id="g4223" transform="matrix(0.92122952,0,0,0.92122952,25.452128,44.153506)"><g id="g4218"><path style="fill:#ff0;fill-opacity:1;stroke:#2e2d33;stroke-width:1;stroke-linecap:square;stroke-linejoin:round;stroke-miterlimit:4;stroke-opacity:1;stroke-dasharray:none;stroke-dashoffset:6.734" id="path2985" d="m 371.42856,503.79074 c 0,33.13709 -26.86292,60 -60,60 -33.13709,0 -60,-26.86291 -60,-60 0,-33.13708 26.86291,-60 60,-60 33.13708,0 60,26.86292 60,60 z" transform="translate(11.688946,-20.377828)"/><path style="fill:red;fill-opacity:1;stroke:#2e2d33;stroke-width:1;stroke-linecap:square;stroke-linejoin:round;stroke-miterlimit:4;stroke-opacity:1;stroke-dasharray:none;stroke-dashoffset:6.734" id="path2985-4" d="m 371.42856,503.79074 c 0,33.13709 -26.86292,60 -60,60 -33.13709,0 -60,-26.86291 -60,-60 0,-33.13708 26.86291,-60 60,-60 33.13708,0 60,26.86292 60,60 z" transform="translate(-167.15345,-20.377828)"/><path style="fill:#0f0;fill-opacity:1;stroke:#2e2d33;stroke-width:1;stroke-linecap:square;stroke-linejoin:round;stroke-miterlimit:4;stroke-opacity:1;stroke-dasharray:none;stroke-dashoffset:6.734" id="path2985-43" d="m 371.42856,503.79074 c 0,33.13709 -26.86292,60 -60,60 -33.13709,0 -60,-26.86291 -60,-60 0,-33.13708 26.86291,-60 60,-60 33.13708,0 60,26.86292 60,60 z" transform="translate(190.53135,-20.377828)"/></g><g id="g4212" transform="translate(0,-6)"><path style="color:#bebebe;fill:#999;fill-opacity:1;fill-rule:nonzero;stroke:none;stroke-width:1;marker:none;visibility:visible;display:inline;overflow:visible" id="path5491" d="m 240.22343,644.73718 27.45869,0 32.8123,-33.15765 6.04432,0.17242 0,132.63062 -5.25324,0.009 -33.60338,-33.33925 -27.45869,0 z"/><path style="color:#000;fill:#fff;fill-opacity:1;fill-rule:nonzero;stroke:none;stroke-width:1;marker:none;visibility:visible;display:inline;overflow:visible;enable-background:accumulate" id="rect11714-3" d="m 406.0116,677.89705 c 0,-31.10431 -11.05255,-57.16081 -28.57714,-77.36786 l -15.63307,0 0,16.36573 c 13.97772,16.79192 22.10511,35.58215 22.10511,61.00213 0,25.41999 -8.6158,44.21021 -22.10511,61.00213 l 0,16.36573 15.26667,0 c 16.20028,-18.13104 28.94354,-46.26355 28.94354,-77.36786 z"/><path style="color:#000;fill:#fff;fill-opacity:1;fill-rule:nonzero;stroke:none;stroke-width:1;marker:none;visibility:visible;display:inline;overflow:visible;enable-background:accumulate" id="rect11703-1" d="m 372.85395,677.89705 c 0,-23.9469 -8.16541,-44.42927 -22.10511,-55.26276 l -11.05255,0 0,22.1051 c 6.70359,8.71804 11.05255,19.44001 11.05255,33.15766 0,13.71765 -4.34896,24.52981 -11.05255,33.15766 l 0,22.1051 11.05255,0 c 13.51617,-10.99486 22.10511,-31.7584 22.10511,-55.26276 z"/><path style="font-size:medium;font-style:normal;font-variant:normal;font-weight:400;font-stretch:normal;text-indent:0;text-align:start;text-decoration:none;line-height:normal;letter-spacing:normal;word-spacing:normal;text-transform:none;direction:ltr;block-progression:tb;writing-mode:lr-tb;text-anchor:start;baseline-shift:baseline;color:#000;fill:#fff;fill-opacity:1;stroke:none;stroke-width:2.32782054;marker:none;visibility:visible;display:inline;overflow:visible;enable-background:accumulate;font-family:Sans;-inkscape-font-specification:Sans" id="path6297-6" d="m 339.69629,677.89705 c 0,-13.8967 -3.44453,-24.48925 -11.05255,-33.15766 l -11.05255,0 0,33.15766 0,4.14471 0,29.01295 11.05255,0 c 7.42798,-9.24988 11.05255,-19.26095 11.05255,-33.15766 z" clip-path="none" mask="none"/></g></g></g></g><text style="font-size:28.5575428px;font-style:normal;font-weight:400;line-height:125%;letter-spacing:0;word-spacing:0;fill:#000;fill-opacity:1;stroke:none;font-family:Sans" id="text4161" x="140.343" y="192.762" xml:space="preserve"><tspan id="tspan4163" x="140.343" y="192.762">reaction_time_discriminative.png</tspan></text><text style="font-size:28.5575428px;font-style:normal;font-weight:400;line-height:125%;letter-spacing:0;word-spacing:0;fill:#000;fill-opacity:1;stroke:none;font-family:Sans" id="text4161-2" x="139.694" y="278.204" xml:space="preserve"><tspan id="tspan4163-3" x="139.694" y="278.204">reaction_time_discriminative.png</tspan></text><text style="font-size:28.5575428px;font-style:normal;font-weight:400;line-height:125%;letter-spacing:0;word-spacing:0;fill:#000;fill-opacity:1;stroke:none;font-family:Sans" id="text4186" x="316.883" y="323.065" xml:space="preserve"><tspan id="tspan4188" x="316.883" y="323.065">110x</tspan></text><text style="font-size:28.5575428px;font-style:normal;font-weight:400;line-height:125%;letter-spacing:0;word-spacing:0;fill:#000;fill-opacity:1;stroke:none;font-family:Sans" id="text4190" x="308.844" y="222.183" xml:space="preserve"><tspan id="tspan4192" x="308.844" y="222.183">300x</tspan></text></g></svg>