<svg xmlns="http://www.w3.org/2000/svg" xmlns:svg="http://www.w3.org/2000/svg" id="svg2" width="499.947" height="502.002" version="1.1"><defs id="defs4"><marker id="DotL" orient="auto" refX="0" refY="0" style="overflow:visible"><path id="path4190" d="M -2.5,-1.0 C -2.5,1.7600000 -4.7400000,4.0 -7.5,4.0 C -10.260000,4.0 -12.5,1.7600000 -12.5,-1.0 C -12.5,-3.7600000 -10.260000,-6.0 -7.5,-6.0 C -4.7400000,-6.0 -2.5,-3.7600000 -2.5,-1.0 z" transform="scale(0.8) translate(7.4, 1)" style="fill-rule:evenodd;stroke:#000;stroke-width:1pt"/></marker><marker id="Arrow1Lend" orient="auto" refX="0" refY="0" style="overflow:visible"><path id="path4800" d="M 0.0,0.0 L 5.0,-5.0 L -12.5,0.0 L 5.0,5.0 L 0.0,0.0 z" transform="scale(0.8) rotate(180) translate(12.5,0)" style="fill-rule:evenodd;stroke:#000;stroke-width:1pt"/></marker><marker id="Arrow1Lstart" orient="auto" refX="0" refY="0" style="overflow:visible"><path id="path4797" d="M 0,0 5,-5 -12.5,0 5,5 0,0 z" transform="matrix(0.8,0,0,0.8,10,0)" style="fill-rule:evenodd;stroke:#000;stroke-width:1pt"/></marker><marker id="Arrow1Lstart-9" orient="auto" refX="0" refY="0" style="overflow:visible"><path id="path4797-0" d="M 0,0 5,-5 -12.5,0 5,5 0,0 z" transform="matrix(0.8,0,0,0.8,10,0)" style="fill-rule:evenodd;stroke:#000;stroke-width:1pt"/></marker><marker id="marker5634" orient="auto" refX="0" refY="0" style="overflow:visible"><path id="path5636" d="M 0,0 5,-5 -12.5,0 5,5 0,0 z" transform="matrix(0.8,0,0,0.8,10,0)" style="fill-rule:evenodd;stroke:#000;stroke-width:1pt"/></marker><marker id="Arrow1Lend-0" orient="auto" refX="0" refY="0" style="overflow:visible"><path id="path4800-8" d="M 0,0 5,-5 -12.5,0 5,5 0,0 z" transform="matrix(-0.8,0,0,-0.8,-10,0)" style="fill-rule:evenodd;stroke:#000;stroke-width:1pt"/></marker><marker id="marker6624" orient="auto" refX="0" refY="0" style="overflow:visible"><path id="path6626" d="M 0,0 5,-5 -12.5,0 5,5 0,0 z" transform="matrix(-0.8,0,0,-0.8,-10,0)" style="fill-rule:evenodd;stroke:#000;stroke-width:1pt"/></marker><marker id="DotL-0" orient="auto" refX="0" refY="0" style="overflow:visible"><path id="path4190-7" d="m -2.5,-1 c 0,2.76 -2.24,5 -5,5 -2.76,0 -5,-2.24 -5,-5 0,-2.76 2.24,-5 5,-5 2.76,0 5,2.24 5,5 z" transform="matrix(0.8,0,0,0.8,5.92,0.8)" style="fill-rule:evenodd;stroke:#000;stroke-width:1pt"/></marker><marker id="Arrow1Lend-2" orient="auto" refX="0" refY="0" style="overflow:visible"><path id="path4800-6" d="M 0,0 5,-5 -12.5,0 5,5 0,0 z" transform="matrix(-0.8,0,0,-0.8,-10,0)" style="fill-rule:evenodd;stroke:#000;stroke-width:1pt"/></marker><marker id="marker3090" orient="auto" refX="0" refY="0" style="overflow:visible"><path id="path3092" d="M 0,0 5,-5 -12.5,0 5,5 0,0 z" transform="matrix(-0.8,0,0,-0.8,-10,0)" style="fill-rule:evenodd;stroke:#000;stroke-width:1pt"/></marker></defs><metadata id="metadata7"/><g id="capa1" transform="translate(-1141.9561,-615.0683)"><g id="g7237"><rect id="rect5471" width="499.947" height="499.947" x="1141.956" y="615.068" style="fill:#fff;fill-opacity:1;stroke:none"/><g id="g7208"><path style="fill:#ffab09;fill-opacity:1;stroke:none" id="path4420-1" d="m 1508.3744,756.84254 c 5.42,-6.87039 26.8871,-45.32127 27.5564,-47.7939 2.4038,17.00705 7.4133,52.19472 6.0608,54.77999 -7.2604,11.21821 -35.2811,5.773 -33.6172,-6.98609 z"/><path style="fill:#ffab09;fill-opacity:1;stroke:none" id="path4420-32" d="m 1187.5427,756.84254 c 5.42,-6.87039 26.8871,-45.32127 27.5564,-47.7939 2.4038,17.00705 7.4133,52.19472 6.0608,54.77999 -7.2604,11.21821 -35.2811,5.773 -33.6172,-6.98609 z"/><g id="g7198"><path id="path4579" d="m 1234.9714,1070.451 c -39.5436,0.2259 -39.78,-34.3516 -39.5275,-56.005" style="fill:#000;fill-opacity:0;stroke:#0f73d9;stroke-width:.84289873;stroke-linecap:butt;stroke-linejoin:miter;stroke-miterlimit:4;stroke-opacity:.88627451;stroke-dasharray:none"/><rect id="rect4509-8-9" width="205.939" height="42.522" x="1233.626" y="1044.125" style="opacity:.88771925;fill:#0f73d9;fill-opacity:1;stroke:none"/><text id="text4547" x="1235.954" y="1063.969" xml:space="preserve" style="font-size:9.78759003px;font-style:normal;font-weight:400;line-height:125%;letter-spacing:0;word-spacing:0;fill:#fff;fill-opacity:1;stroke:none;font-family:Sans"><tspan style="font-weight:700;-inkscape-font-specification:Sans Bold" id="tspan4549" x="1235.954" y="1063.969">Contact platform</tspan><tspan style="font-weight:700;-inkscape-font-specification:Sans Bold" id="tspan4551" x="1235.954" y="1076.203">or photocell</tspan></text><rect id="rect4509-8" width="70.44" height="21.606" x="1157.334" y="1000.648" style="opacity:.88771925;fill:#0f73d9;fill-opacity:1;stroke:none"/><text id="text4547-9" x="1164.828" y="1014.15" xml:space="preserve" style="font-size:9.78759003px;font-style:normal;font-weight:400;line-height:125%;letter-spacing:0;word-spacing:0;fill:#fff;fill-opacity:1;stroke:none;font-family:Sans"><tspan style="font-weight:700;-inkscape-font-specification:Sans Bold" id="tspan4551-0" x="1164.828" y="1014.15">Chronopic</tspan></text></g><g id="g4692" transform="translate(2,-4)"><path id="path4606-3" d="m 1207.0351,681.367 312.9942,0" style="fill:none;stroke:#000;stroke-width:2.12338829;stroke-linecap:butt;stroke-linejoin:miter;stroke-miterlimit:4;stroke-opacity:1;stroke-dasharray:none"/><text id="text4608-4" x="1346.872" y="663.001" xml:space="preserve" style="font-size:20.97130203px;font-style:normal;font-weight:400;line-height:125%;letter-spacing:0;word-spacing:0;fill:#000;fill-opacity:1;stroke:none;font-family:Sans"><tspan id="tspan4610-1" x="1346.872" y="663.001">9m</tspan></text></g><path style="fill:none;stroke:#000;stroke-width:1px;stroke-linecap:butt;stroke-linejoin:miter;stroke-opacity:1;marker-start:url(#Arrow1Lstart);marker-mid:url(#Arrow1Lstart)" id="path4677" d="m 1387.4792,1073.3457 c 24.5503,-57.7325 51.883,-225.41601 12.7324,-305.99646 -44.3239,-83.35228 -239.6583,93.40278 -216.2624,-29.52596 54.4979,-133.73469 348.9781,113.38392 377.516,12.1951 2.8339,-62.18245 -191.5242,-68.3834 -230.9183,7.80986 -35.7467,70.35024 -25.1064,250.76546 8.2327,313.14166"/><path style="fill:#e92121;fill-opacity:1;stroke:none" id="path3642-5" d="m 1111.0909,840.45306 c 0,11.24653 -22.7928,20.36364 -50.9091,20.36364 -28.1164,0 -50.9091,-9.11711 -50.9091,-20.36364 0,-11.24652 22.7927,-20.36363 50.9091,-20.36363 28.1163,0 50.9091,9.11711 50.9091,20.36363 z" transform="matrix(0.32763948,0.04194068,-0.05879198,0.45928138,1065.713,329.52381)"/><path style="fill:#ffab09;fill-opacity:1;stroke:none" id="path4420" d="m 1346.6453,756.84254 c 5.42,-6.87039 26.8871,-45.32127 27.5564,-47.7939 2.4038,17.00705 7.4133,52.19472 6.0608,54.77999 -7.2604,11.21821 -35.2811,5.773 -33.6172,-6.98609 z"/><path style="fill:#ffab09;fill-opacity:1;stroke:none" id="path4420-7" d="m 1346.6453,1064.8071 c 5.42,-6.8704 26.8871,-45.3213 27.5564,-47.7939 2.4038,17.007 7.4133,52.1947 6.0608,54.78 -7.2604,11.2182 -35.2811,5.773 -33.6172,-6.9861 z"/><g id="g4761" transform="translate(106,32)"><path id="path4606-3-6" d="m 1479.1853,725.4084 0,312.9942" style="fill:none;stroke:#000;stroke-width:2.12338829;stroke-linecap:butt;stroke-linejoin:miter;stroke-miterlimit:4;stroke-opacity:1;stroke-dasharray:none"/><text id="text4608-4-9" x="1488.525" y="889.539" xml:space="preserve" style="font-size:20.97130203px;font-style:normal;font-weight:400;line-height:125%;letter-spacing:0;word-spacing:0;fill:#000;fill-opacity:1;stroke:none;font-family:Sans"><tspan id="tspan4610-1-8" x="1488.525" y="889.539">9m</tspan></text></g><text style="font-size:29.36927795px;font-style:normal;font-weight:400;line-height:125%;letter-spacing:0;word-spacing:0;fill:#000;fill-opacity:1;stroke:none;font-family:Sans" id="text5446" x="1459.228" y="1085.977" xml:space="preserve"><tspan id="tspan5448" x="1459.228" y="1085.977">T Test</tspan></text><text style="font-size:18.3488903px;font-style:normal;font-weight:400;line-height:125%;letter-spacing:0;word-spacing:0;fill:#000;fill-opacity:1;stroke:none;font-family:Sans" id="text5446-4" x="1442.545" y="1113.253" xml:space="preserve"><tspan id="tspan5448-0" x="1442.545" y="1113.253">chronojump.org</tspan></text></g></g><text style="font-size:40px;font-style:normal;font-weight:400;line-height:125%;letter-spacing:0;word-spacing:0;fill:#000;fill-opacity:1;stroke:none;font-family:Sans" id="text5506" x="1226.464" y="422.026" xml:space="preserve"><tspan id="tspan5508" x="1226.464" y="422.026">agility_t_test.png</tspan></text><text style="font-size:20.52796173px;font-style:normal;font-weight:400;line-height:125%;letter-spacing:0;word-spacing:0;fill:#000;fill-opacity:1;stroke:none;font-family:Sans" id="text5506-1" x="1334.492" y="457.234" xml:space="preserve"><tspan id="tspan5508-1" x="1334.492" y="457.234">450px width</tspan></text><text style="font-size:40px;font-style:normal;font-weight:400;line-height:125%;letter-spacing:0;word-spacing:0;fill:#000;fill-opacity:1;stroke:none;font-family:Sans" id="text5506-9" x="1220.903" y="521.616" xml:space="preserve"><tspan id="tspan5508-3" x="1220.903" y="521.616">mini/agility_t_test.png</tspan></text><text style="font-size:20.52796173px;font-style:normal;font-weight:400;line-height:125%;letter-spacing:0;word-spacing:0;fill:#000;fill-opacity:1;stroke:none;font-family:Sans" id="text5506-1-6" x="1328.931" y="556.824" xml:space="preserve"><tspan id="tspan5508-1-2" x="1328.931" y="556.824">150px width</tspan></text><text style="font-size:40px;font-style:normal;font-weight:400;line-height:125%;letter-spacing:0;word-spacing:0;fill:#000;fill-opacity:1;stroke:none;font-family:Sans" id="text5506-3" x="1985.805" y="396.286" xml:space="preserve"><tspan id="tspan5508-12" x="1985.805" y="396.286">agility_3l3r.png</tspan></text><text style="font-size:20.52796173px;font-style:normal;font-weight:400;line-height:125%;letter-spacing:0;word-spacing:0;fill:#000;fill-opacity:1;stroke:none;font-family:Sans" id="text5506-1-5" x="2093.832" y="431.494" xml:space="preserve"><tspan id="tspan5508-1-9" x="2093.832" y="431.494">450px width</tspan></text><text style="font-size:40px;font-style:normal;font-weight:400;line-height:125%;letter-spacing:0;word-spacing:0;fill:#000;fill-opacity:1;stroke:none;font-family:Sans" id="text5506-9-7" x="1980.243" y="495.876" xml:space="preserve"><tspan id="tspan5508-3-2" x="1980.243" y="495.876">mini/agility_3l3r.png</tspan></text><text style="font-size:20.52796173px;font-style:normal;font-weight:400;line-height:125%;letter-spacing:0;word-spacing:0;fill:#000;fill-opacity:1;stroke:none;font-family:Sans" id="text5506-1-6-4" x="2088.271" y="531.084" xml:space="preserve"><tspan id="tspan5508-1-2-9" x="2088.271" y="531.084">150px width</tspan></text><g id="g4612"><rect id="rect5471-6" width="634.301" height="618.107" x="1887.364" y="576.055" style="fill:#fff;fill-opacity:1;stroke:none"/><g id="g4581"><g id="g6738" transform="translate(188.36102,-0.38547839)"><path id="path4606-3-6-5" d="m 2266.9664,683.05884 0,439.62816" style="fill:none;stroke:#000;stroke-width:2.12338829;stroke-linecap:butt;stroke-linejoin:miter;stroke-miterlimit:4;stroke-opacity:1;stroke-dasharray:none"/><text id="text4608-4-9-4" x="2274.306" y="902.237" xml:space="preserve" style="font-size:20.97130203px;font-style:normal;font-weight:400;line-height:125%;letter-spacing:0;word-spacing:0;fill:#000;fill-opacity:1;stroke:none;font-family:Sans"><tspan id="tspan4610-1-8-0" x="2274.306" y="902.237">10m</tspan></text></g><g id="g6728" transform="translate(91.781296,-10.209996)"><text id="text5446-0" x="1810.222" y="1134.512" xml:space="preserve" style="font-size:29.36927795px;font-style:normal;font-weight:400;line-height:125%;letter-spacing:0;word-spacing:0;fill:#000;fill-opacity:1;stroke:none;font-family:Sans"><tspan id="tspan5448-5" x="1810.222" y="1134.512">3L3R Test</tspan></text><text id="text5446-4-1" x="1810.178" y="1160.401" xml:space="preserve" style="font-size:18.3488903px;font-style:normal;font-weight:400;line-height:125%;letter-spacing:0;word-spacing:0;fill:#000;fill-opacity:1;stroke:none;font-family:Sans"><tspan id="tspan5448-0-3" x="1810.178" y="1160.401">Josep Ma Padullés</tspan><tspan id="tspan6684" x="1810.178" y="1183.337">chronojump.org</tspan></text></g><path style="fill:#000;fill-opacity:0;stroke:#0f73d9;stroke-width:1;stroke-linecap:butt;stroke-linejoin:miter;stroke-miterlimit:4;stroke-opacity:.88627451;stroke-dasharray:none" id="path4579-5" d="m 2135.2002,896.58833 c -32.2248,2.07535 -29.4874,-13.57173 -29.1309,-35.16443"/><rect style="opacity:.88771925;fill:#0f73d9;fill-opacity:1;stroke:none" id="rect4509-8-9-3" width="165.262" height="42.522" x="2134.803" y="873.448"/><text style="font-size:9.78759003px;font-style:normal;font-weight:400;line-height:125%;letter-spacing:0;word-spacing:0;fill:#fff;fill-opacity:1;stroke:none;font-family:Sans" id="text4547-1" x="2200.012" y="891.292" xml:space="preserve"><tspan style="font-weight:700;-inkscape-font-specification:Sans Bold" id="tspan4549-1" x="2200.012" y="891.292">Contact platform</tspan><tspan style="font-weight:700;-inkscape-font-specification:Sans Bold" id="tspan4551-9" x="2200.012" y="903.526">or photocell</tspan></text><g id="g7044"><rect id="rect4509-8-4" width="70.44" height="21.606" x="2070.643" y="839.97" style="opacity:.88771925;fill:#0f73d9;fill-opacity:1;stroke:none"/><text id="text4547-9-1" x="2078.137" y="853.473" xml:space="preserve" style="font-size:9.78759003px;font-style:normal;font-weight:400;line-height:125%;letter-spacing:0;word-spacing:0;fill:#fff;fill-opacity:1;stroke:none;font-family:Sans"><tspan style="font-style:normal;font-weight:700;-inkscape-font-specification:Sans Bold" id="tspan4551-0-6" x="2078.137" y="853.473">Chronopic</tspan></text></g><path style="fill:none;stroke:#000;stroke-width:1px;stroke-linecap:butt;stroke-linejoin:miter;stroke-opacity:1;marker-start:url(#DotL);marker-mid:url(#Arrow1Lend);marker-end:url(#Arrow1Lend)" id="path5860" d="m 2169.2841,1019.9998 c 16.4914,-79.65841 80.3694,-367.14164 12.5073,-369.25589 -73.2503,-1.05677 -267.8505,194.80869 -256.686,250.40723 6.5779,72.57084 194.4496,266.04066 256.8399,246.11526 112.4718,-57.8335 -114.006,-432.70315 -20.9758,-514.10337 50.8747,-26.72767 294.9821,207.13451 258.594,266.70069 -65.1479,143.07518 -203.9496,265.48488 -247.0053,270.31238 -78.2847,-24.0928 -31.3382,-202.85228 -1.8322,-269.46903"/><path style="fill:#ffab09;fill-opacity:1;stroke:none" id="path4420-32-6-5" d="m 2150.6565,679.45138 c 5.4201,-6.87032 26.8871,-45.32123 27.5565,-47.79384 2.4037,17.00705 7.4133,52.19466 6.0607,54.77998 -7.2603,11.21818 -35.281,5.77296 -33.6172,-6.98614 z"/><path style="fill:#ffab09;fill-opacity:1;stroke:none" id="path4420-7-8-9" d="m 2368.4204,897.21527 c 5.42,-6.87046 26.8871,-45.32137 27.5564,-47.79391 2.4038,17.00698 7.4133,52.19466 6.0609,54.77999 -7.2605,11.21817 -35.2812,5.77303 -33.6173,-6.98608 z"/><path style="fill:#ffab09;fill-opacity:1;stroke:none" id="path4420-32-6" d="m 1931.3791,898.72895 c 5.42,-6.87039 26.887,-45.3213 27.5564,-47.79391 2.4037,17.00705 7.4133,52.19466 6.0607,54.77998 -7.2603,11.21818 -35.281,5.77296 -33.6171,-6.98607 z"/><path style="fill:#ffab09;fill-opacity:1;stroke:none" id="path4420-7-8" d="m 2149.1429,1116.4927 c 5.42,-6.8703 26.8871,-45.3212 27.5564,-47.7939 2.4038,17.007 7.4133,52.1948 6.0608,54.7801 -7.2604,11.2182 -35.2811,5.7729 -33.6172,-6.9862 z"/><path style="fill:none;stroke:#000;stroke-width:2.12338829;stroke-linecap:butt;stroke-linejoin:miter;stroke-miterlimit:4;stroke-opacity:1;stroke-dasharray:none" id="path4606-3-6-5-4" d="m 1958.2906,618.37182 439.6282,0"/><text style="font-size:20.97130203px;font-style:normal;font-weight:400;line-height:125%;letter-spacing:0;word-spacing:0;fill:#000;fill-opacity:1;stroke:none;font-family:Sans" id="text4608-4-9-4-7" x="2146.007" y="608.838" xml:space="preserve"><tspan id="tspan4610-1-8-0-8" x="2146.007" y="608.838">10m</tspan></text><text style="font-size:20.97130203px;font-style:normal;font-weight:400;line-height:125%;letter-spacing:0;word-spacing:0;fill:#000;fill-opacity:1;stroke:none;font-family:Sans" id="text4608-4-9-4-0" x="2143.048" y="1045.596" xml:space="preserve"><tspan id="tspan4610-1-8-0-4" x="2143.048" y="1045.596">Start</tspan></text></g></g><g id="g4178"><rect id="rect5471-6-2" width="634.301" height="618.107" x="2798.347" y="549.007" style="fill:#fff;fill-opacity:1;stroke:none"/><path id="path4606-3-6-5-6" d="m 3366.3103,655.62595 0,439.62815" style="fill:none;stroke:#000;stroke-width:2.12338829;stroke-linecap:butt;stroke-linejoin:miter;stroke-miterlimit:4;stroke-opacity:1;stroke-dasharray:none"/><text id="text4608-4-9-4-8" x="3373.65" y="874.804" xml:space="preserve" style="font-size:20.97130203px;font-style:normal;font-weight:400;line-height:125%;letter-spacing:0;word-spacing:0;fill:#000;fill-opacity:1;stroke:none;font-family:Sans"><tspan id="tspan4610-1-8-0-6" x="3373.65" y="874.804">10m</tspan></text><text id="text5446-0-3" x="2812.987" y="1097.254" xml:space="preserve" style="font-size:29.36927795px;font-style:normal;font-weight:400;line-height:125%;letter-spacing:0;word-spacing:0;fill:#000;fill-opacity:1;stroke:none;font-family:Sans"><tspan id="tspan5448-5-2" x="2812.987" y="1097.254">3L3R Test</tspan></text><text id="text5446-4-1-5" x="2812.942" y="1123.143" xml:space="preserve" style="font-size:18.3488903px;font-style:normal;font-weight:400;line-height:125%;letter-spacing:0;word-spacing:0;fill:#000;fill-opacity:1;stroke:none;font-family:Sans"><tspan id="tspan5448-0-3-7" x="2812.942" y="1123.143">Josep Ma Padullés</tspan><tspan id="tspan6684-0" x="2812.942" y="1146.079">chronojump.org</tspan></text><path id="path5860-4" d="m 3080.2669,992.95239 c 16.4914,-79.65841 80.3694,-367.14165 12.5073,-369.25589 -73.2503,-1.05678 -267.8505,194.80868 -256.686,250.40723 6.5779,72.57084 194.4496,266.04067 256.8399,246.11527 112.4718,-57.8335 -114.006,-432.70317 -20.9758,-514.10339 50.8747,-26.72767 294.9821,207.13451 258.594,266.70069 -65.1479,143.0752 -203.9496,265.4849 -247.0053,270.3124 -78.2847,-24.0928 -31.3382,-202.8523 -1.8322,-269.46905" style="fill:none;stroke:#000;stroke-width:1px;stroke-linecap:butt;stroke-linejoin:miter;stroke-opacity:1;marker-start:url(#DotL);marker-mid:url(#Arrow1Lend);marker-end:url(#Arrow1Lend)"/><text id="text4547-1-4" x="2904.995" y="884.244" xml:space="preserve" style="font-size:9.78759003px;font-style:normal;font-weight:400;line-height:125%;letter-spacing:0;word-spacing:0;fill:#000;fill-opacity:1;stroke:none;font-family:Sans"><tspan id="tspan4551-9-2" x="2904.995" y="884.244" style="font-size:20px;font-weight:400;fill:#000;-inkscape-font-specification:Sans">photocell</tspan></text><path id="path4420-32-6-5-0" d="m 3061.6393,652.40396 c 5.4201,-6.87032 26.8871,-45.32123 27.5565,-47.79384 2.4037,17.00705 7.4133,52.19466 6.0607,54.77998 -7.2603,11.21818 -35.281,5.77296 -33.6172,-6.98614 z" style="fill:#ffab09;fill-opacity:1;stroke:none"/><path id="path4420-7-8-9-6" d="m 3279.4032,870.16786 c 5.42,-6.87046 26.8871,-45.32137 27.5564,-47.79391 2.4038,17.00698 7.4133,52.19466 6.0609,54.77999 -7.2605,11.21817 -35.2812,5.77302 -33.6173,-6.98608 z" style="fill:#ffab09;fill-opacity:1;stroke:none"/><path id="path4420-32-6-4" d="m 2842.3619,871.68154 c 5.42,-6.8704 26.887,-45.3213 27.5564,-47.79391 2.4037,17.00705 7.4133,52.19466 6.0607,54.77998 -7.2603,11.21818 -35.281,5.77296 -33.6171,-6.98607 z" style="fill:#ffab09;fill-opacity:1;stroke:none"/><path id="path4420-7-8-5" d="m 3060.1257,1089.4453 c 5.42,-6.8703 26.8871,-45.3212 27.5564,-47.7939 2.4038,17.007 7.4133,52.1948 6.0608,54.7801 -7.2604,11.2182 -35.2811,5.7729 -33.6172,-6.9862 z" style="fill:#ffab09;fill-opacity:1;stroke:none"/><path id="path4606-3-6-5-4-8" d="m 2869.2734,591.3244 439.6282,0" style="fill:none;stroke:#000;stroke-width:2.12338829;stroke-linecap:butt;stroke-linejoin:miter;stroke-miterlimit:4;stroke-opacity:1;stroke-dasharray:none"/><text id="text4608-4-9-4-7-1" x="3056.99" y="581.79" xml:space="preserve" style="font-size:20.97130203px;font-style:normal;font-weight:400;line-height:125%;letter-spacing:0;word-spacing:0;fill:#000;fill-opacity:1;stroke:none;font-family:Sans"><tspan id="tspan4610-1-8-0-8-7" x="3056.99" y="581.79">10m</tspan></text><text id="text4608-4-9-4-0-6" x="3054.031" y="1018.548" xml:space="preserve" style="font-size:20.97130203px;font-style:normal;font-weight:400;line-height:125%;letter-spacing:0;word-spacing:0;fill:#000;fill-opacity:1;stroke:none;font-family:Sans"><tspan id="tspan4610-1-8-0-4-2" x="3054.031" y="1018.548">Start</tspan></text><path id="path4108" d="m 2935.984,865.24207 293.1183,0" style="fill:none;stroke:#000;stroke-width:6.3133626;stroke-linecap:round;stroke-linejoin:miter;stroke-miterlimit:4;stroke-opacity:1;stroke-dasharray:6.31336254,25.25345016;stroke-dashoffset:12.62672508"/></g><text style="font-size:40px;font-style:normal;font-weight:400;line-height:125%;letter-spacing:0;word-spacing:0;fill:#000;fill-opacity:1;stroke:none;font-family:Sans" id="text5506-3-5" x="2842.506" y="395.634" xml:space="preserve"><tspan id="tspan5508-12-4" x="2842.506" y="395.634">agility_3l3r_photocell.png</tspan></text><text style="font-size:20.52796173px;font-style:normal;font-weight:400;line-height:125%;letter-spacing:0;word-spacing:0;fill:#000;fill-opacity:1;stroke:none;font-family:Sans" id="text5506-1-5-8" x="2950.534" y="430.842" xml:space="preserve"><tspan id="tspan5508-1-9-6" x="2950.534" y="430.842">800px width</tspan></text></g></svg>